<?xml version="1.0"?>
<svg xmlns="http://www.w3.org/2000/svg" viewBox="0 0 256 256">
  <defs>
    <linearGradient id="mark-bg" x1="0%" y1="0%" x2="100%" y2="100%">
      <stop offset="0%" stop-color="#0B1121"></stop>
      <stop offset="100%" stop-color="#1e3a8a"></stop>
    </linearGradient>
    <filter id="mark-glow" x="-40%" y="-40%" width="180%" height="180%">
      <feGaussianBlur stdDeviation="4" result="glow"></feGaussianBlur>
      <feMerge>
        <feMergeNode in="glow"></feMergeNode>
        <feMergeNode in="SourceGraphic"></feMergeNode>
      </feMerge>
    </filter>
  </defs>
  <rect fill="url(#mark-bg)" width="256" height="256" rx="40"></rect>
  <g fill="none" stroke="#3b82f6" stroke-width="12" stroke-linecap="round" stroke-linejoin="round" filter="url(#mark-glow)">
    <path d="M80 64v120M176 64v120"></path>
    <path d="M68 82h120"></path>
    <path d="M56 110h22M178 110h22"></path>
    <rect x="44" y="92" width="32" height="80" rx="8"></rect>
    <rect x="180" y="92" width="32" height="80" rx="8"></rect>
    <path d="M104 138h48M120 138v40M136 138v40"></path>
    <rect x="104" y="122" width="48" height="24" rx="8"></rect>
    <path d="M64 178h128"></path>
    <rect x="70" y="168" width="32" height="44" rx="8"></rect>
    <rect x="150" y="168" width="32" height="44" rx="8"></rect>
  </g>
</svg>